<?xml version="1.0" encoding="UTF-8" standalone="no"?>
<svg
   xmlns:dc="http://purl.org/dc/elements/1.1/"
   xmlns:cc="http://creativecommons.org/ns#"
   xmlns:rdf="http://www.w3.org/1999/02/22-rdf-syntax-ns#"
   xmlns:svg="http://www.w3.org/2000/svg"
   xmlns="http://www.w3.org/2000/svg"
   xmlns:sodipodi="http://sodipodi.sourceforge.net/DTD/sodipodi-0.dtd"
   xmlns:inkscape="http://www.inkscape.org/namespaces/inkscape"
   width="50.460mm"
   height="128.400mm"
   version="1.1"
   viewBox="0 0 50.460 128.400"
   id="svg2"
   inkscape:version="0.48.2 r9819"
   sodipodi:docname="eurotrash_panel.svg">
  <metadata
     id="metadata58">
    <rdf:RDF>
      <cc:Work
         rdf:about="">
        <dc:format>image/svg+xml</dc:format>
        <dc:type
           rdf:resource="http://purl.org/dc/dcmitype/StillImage" />
      </cc:Work>
    </rdf:RDF>
  </metadata>
  <sodipodi:namedview
     pagecolor="#ffffff"
     bordercolor="#666666"
     borderopacity="1"
     objecttolerance="10"
     gridtolerance="10"
     guidetolerance="10"
     inkscape:pageopacity="0"
     inkscape:pageshadow="2"
     inkscape:window-width="1255"
     inkscape:window-height="791"
     id="namedview56"
     showgrid="false"
     inkscape:zoom="1.8107452"
     inkscape:cx="-8.3521755"
     inkscape:cy="227.4803"
     inkscape:window-x="0"
     inkscape:window-y="0"
     inkscape:window-maximized="0"
     inkscape:current-layer="svg2" />
  <desc
     id="desc4">Created with the Front Panel Designer by the export of the file 'eurotrash_panel.fpd'.</desc>
  <defs
     id="defs6">
    <pattern
       id="revside-fill"
       x="1"
       y="1"
       width="1.5"
       height="1.5"
       patternUnits="userSpaceOnUse">
      <line
         x1="0"
         y1="0"
         x2="1"
         y2="1"
         style="stroke-width:0.2; stroke:black; stroke-dasharray:none;"
         id="line9" />
      <line
         x1="0"
         y1="1"
         x2="1"
         y2="0"
         style="stroke-width:0.2; stroke:black; stroke-dasharray:none;"
         id="line11" />
    </pattern>
    <pattern
       id="revside-fill-e0e0e0"
       x="1"
       y="1"
       width="1.5"
       height="1.5"
       patternUnits="userSpaceOnUse">
      <line
         x1="0"
         y1="0"
         x2="1.5"
         y2="1.5"
         style="stroke-width:0.2; stroke:#e0e0e0; stroke-dasharray:none;"
         id="line14" />
      <line
         x1="0"
         y1="1.5"
         x2="1.5"
         y2="0"
         style="stroke-width:0.2; stroke:#e0e0e0; stroke-dasharray:none;"
         id="line16" />
    </pattern>
  </defs>
  <g
     transform="scale(1,-1) translate(0, -128.400)"
     fill-rule="evenodd"
     style="stroke-linecap:round; stroke-linejoin:round; stroke-opacity:1.0; stroke-opacity:1.0;"
     id="g18">
    <path
       d="M50.460 128.400  L0.000 128.400 L0.000 128.400 L0.000 0.000 L0.000 0.000 L50.460 0.000 L50.460 0.000 L50.460 128.400 L50.460 128.400z"
       fill="#ccd0cb"
       vector-effect="non-scaling-stroke"
       stroke="#000000"
       stroke-width="0.100mm"
       id="path20"
       style="fill:none" />
    <path
       d="M4.538 3.907  A1.200,1.200 0 0,0 5.684,4.750 L9.216 4.750 A1.200,1.200 0 0,0 10.362,3.907 A3.050,3.050 0 0,0 10.362,2.093 A1.200,1.200 0 0,0 9.216,1.250 L5.684 1.250 A1.200,1.200 0 0,0 4.538,2.093 A3.050,3.050 0 0,0 4.538,3.907z"
       fill="#ffffff"
       vector-effect="non-scaling-stroke"
       stroke="#000000"
       stroke-width="0.100mm"
       id="path22" />
    <path
       d="M4.538 126.307  A1.200,1.200 0 0,0 5.684,127.150 L9.216 127.150 A1.200,1.200 0 0,0 10.362,126.307 A3.050,3.050 0 0,0 10.362,124.493 A1.200,1.200 0 0,0 9.216,123.650 L5.684 123.650 A1.200,1.200 0 0,0 4.538,124.493 A3.050,3.050 0 0,0 4.538,126.307z"
       fill="#ffffff"
       vector-effect="non-scaling-stroke"
       stroke="#000000"
       stroke-width="0.100mm"
       id="path24" />
    <path
       d="M40.098 3.907  A1.200,1.200 0 0,0 41.244,4.750 L44.776 4.750 A1.200,1.200 0 0,0 45.922,3.907 A3.050,3.050 0 0,0 45.922,2.093 A1.200,1.200 0 0,0 44.776,1.250 L41.244 1.250 A1.200,1.200 0 0,0 40.098,2.093 A3.050,3.050 0 0,0 40.098,3.907z"
       fill="#ffffff"
       vector-effect="non-scaling-stroke"
       stroke="#000000"
       stroke-width="0.100mm"
       id="path26" />
    <path
       d="M40.098 126.307  A1.200,1.200 0 0,0 41.244,127.150 L44.776 127.150 A1.200,1.200 0 0,0 45.922,126.307 A3.050,3.050 0 0,0 45.922,124.493 A1.200,1.200 0 0,0 44.776,123.650 L41.244 123.650 A1.200,1.200 0 0,0 40.098,124.493 A3.050,3.050 0 0,0 40.098,126.307z"
       fill="#ffffff"
       vector-effect="non-scaling-stroke"
       stroke="#000000"
       stroke-width="0.100mm"
       id="path28" />
    <circle
       cx="6.250"
       cy="31.000"
       r="3.150"
       fill="#ffffff"
       vector-effect="non-scaling-stroke"
       stroke="#000000"
       stroke-width="0.100mm"
       id="circle30"
       d="m 9.4000001,31 c 0,1.739697 -1.4103031,3.15 -3.1500001,3.15 -1.739697,0 -3.1500001,-1.410303 -3.1500001,-3.15 0,-1.739697 1.4103031,-3.15 3.1500001,-3.15 1.739697,0 3.1500001,1.410303 3.1500001,3.15 z" />
    <circle
       cx="18.900"
       cy="31.000"
       r="3.150"
       fill="#ffffff"
       vector-effect="non-scaling-stroke"
       stroke="#000000"
       stroke-width="0.100mm"
       id="circle32"
       d="m 22.05,31 c 0,1.739697 -1.410303,3.15 -3.15,3.15 -1.739697,0 -3.15,-1.410303 -3.15,-3.15 0,-1.739697 1.410303,-3.15 3.15,-3.15 1.739697,0 3.15,1.410303 3.15,3.15 z" />
    <circle
       cx="31.550"
       cy="31.000"
       r="3.150"
       fill="#ffffff"
       vector-effect="non-scaling-stroke"
       stroke="#000000"
       stroke-width="0.100mm"
       id="circle34"
       d="m 34.699999,31 c 0,1.739697 -1.410303,3.15 -3.15,3.15 -1.739697,0 -3.15,-1.410303 -3.15,-3.15 0,-1.739697 1.410303,-3.15 3.15,-3.15 1.739697,0 3.15,1.410303 3.15,3.15 z" />
    <circle
       cx="44.200"
       cy="31.000"
       r="3.150"
       fill="#ffffff"
       vector-effect="non-scaling-stroke"
       stroke="#000000"
       stroke-width="0.100mm"
       id="circle36"
       d="m 47.350001,31 c 0,1.739697 -1.410303,3.15 -3.15,3.15 -1.739697,0 -3.15,-1.410303 -3.15,-3.15 0,-1.739697 1.410303,-3.15 3.15,-3.15 1.739697,0 3.15,1.410303 3.15,3.15 z" />
    <circle
       cx="44.200"
       cy="17.000"
       r="3.150"
       fill="#ffffff"
       vector-effect="non-scaling-stroke"
       stroke="#000000"
       stroke-width="0.100mm"
       id="circle38"
       d="m 47.350001,17 c 0,1.739697 -1.410303,3.15 -3.15,3.15 -1.739697,0 -3.15,-1.410303 -3.15,-3.15 0,-1.739697 1.410303,-3.15 3.15,-3.15 1.739697,0 3.15,1.410303 3.15,3.15 z" />
    <circle
       cx="31.550"
       cy="17.000"
       r="3.150"
       fill="#ffffff"
       vector-effect="non-scaling-stroke"
       stroke="#000000"
       stroke-width="0.100mm"
       id="circle40"
       d="m 34.699999,17 c 0,1.739697 -1.410303,3.15 -3.15,3.15 -1.739697,0 -3.15,-1.410303 -3.15,-3.15 0,-1.739697 1.410303,-3.15 3.15,-3.15 1.739697,0 3.15,1.410303 3.15,3.15 z" />
    <circle
       cx="18.900"
       cy="17.000"
       r="3.150"
       fill="#ffffff"
       vector-effect="non-scaling-stroke"
       stroke="#000000"
       stroke-width="0.100mm"
       id="circle42"
       d="m 22.05,17 c 0,1.739697 -1.410303,3.15 -3.15,3.15 -1.739697,0 -3.15,-1.410303 -3.15,-3.15 0,-1.739697 1.410303,-3.15 3.15,-3.15 1.739697,0 3.15,1.410303 3.15,3.15 z" />
    <circle
       cx="6.250"
       cy="17.000"
       r="3.150"
       fill="#ffffff"
       vector-effect="non-scaling-stroke"
       stroke="#000000"
       stroke-width="0.100mm"
       id="circle44"
       d="m 9.4000001,17 c 0,1.739697 -1.4103031,3.15 -3.1500001,3.15 -1.739697,0 -3.1500001,-1.410303 -3.1500001,-3.15 0,-1.739697 1.4103031,-3.15 3.1500001,-3.15 1.739697,0 3.1500001,1.410303 3.1500001,3.15 z" />
    <circle
       cx="8.250"
       cy="53.250"
       r="3.150"
       fill="#ffffff"
       vector-effect="non-scaling-stroke"
       stroke="#000000"
       stroke-width="0.100mm"
       id="circle46"
       d="m 11.4,53.25 c 0,1.739697 -1.410303,3.15 -3.15,3.15 -1.739697,0 -3.1500001,-1.410303 -3.1500001,-3.15 0,-1.739697 1.4103031,-3.15 3.1500001,-3.15 1.739697,0 3.15,1.410303 3.15,3.15 z" />
    <circle
       cx="41.600"
       cy="53.250"
       r="3.150"
       fill="#ffffff"
       vector-effect="non-scaling-stroke"
       stroke="#000000"
       stroke-width="0.100mm"
       id="circle48"
       d="m 44.749999,53.25 c 0,1.739697 -1.410304,3.15 -3.150001,3.15 -1.739697,0 -3.15,-1.410303 -3.15,-3.15 0,-1.739697 1.410303,-3.15 3.15,-3.15 1.739697,0 3.150001,1.410303 3.150001,3.15 z" />
    <circle
       cx="8.250"
       cy="82.450"
       r="4.000"
       fill="#ffffff"
       vector-effect="non-scaling-stroke"
       stroke="#000000"
       stroke-width="0.100mm"
       id="circle50"
       d="m 12.25,82.449997 c 0,2.209139 -1.790861,4 -4,4 -2.209139,0 -4,-1.790861 -4,-4 0,-2.209139 1.790861,-4 4,-4 2.209139,0 4,1.790861 4,4 z" />
    <circle
       cx="41.600"
       cy="82.450"
       r="4.000"
       fill="#ffffff"
       vector-effect="non-scaling-stroke"
       stroke="#000000"
       stroke-width="0.100mm"
       id="circle52"
       d="m 45.599998,82.449997 c 0,2.209139 -1.790861,4 -4,4 -2.209139,0 -4,-1.790861 -4,-4 0,-2.209139 1.790861,-4 4,-4 2.209139,0 4,1.790861 4,4 z" />
    <rect
       x="12.441"
       y="100.450"
       width="25.000"
       height="9.000"
       rx="1.500"
       fill="#ffffff"
       vector-effect="non-scaling-stroke"
       stroke="#000000"
       stroke-width="0.100mm"
       id="rect54" />
  </g>
</svg>
